<svg width="24" height="24" viewBox="0 0 24 24" fill="none" xmlns="http://www.w3.org/2000/svg">
<path d="M12 0.75C5.787 0.75 0.75 5.787 0.75 12.0004C0.75 18.2126 5.787 23.25 12 23.25C18.213 23.25 23.25 18.2126 23.25 12.0004C23.25 5.787 18.213 0.75 12 0.75ZM20.25 12.0004C20.25 13.7362 19.7126 15.3461 18.7965 16.6747L7.32488 5.2035C8.69912 4.25472 10.3301 3.74766 12 3.75C16.5563 3.75 20.25 7.44412 20.25 12.0004ZM3.75 12.0004C3.74784 10.3303 4.25488 8.69934 5.2035 7.32488L16.6751 18.7965C15.301 19.7455 13.67 20.2527 12 20.2504C7.44375 20.2504 3.75 16.5559 3.75 12.0004V12.0004Z" fill="white"/>
</svg>
