<svg width="48" height="48" viewBox="0 0 48 48" fill="none" xmlns="http://www.w3.org/2000/svg">
<path d="M21.002 0H27.002L28.502 9L31.062 10.06L39.002 4.94L43.062 9L37.942 16.94L39.002 19.5L48 21V27L39 28.5L37.94 31.06L43.06 39L39 43.06L31.06 37.94L28.5 39L27 47.998H21L19.5 38.998L16.94 37.938L9 43.058L4.938 38.998L10.058 31.058L8.998 28.498L0 26.998V20.998L9 19.498L10.06 16.938L4.94 8.998L9 4.936L16.94 10.056L19.5 8.996L21.002 0ZM24.002 15C21.6151 15 19.3259 15.9482 17.638 17.636C15.9502 19.3239 15.002 21.6131 15.002 24C15.002 26.3869 15.9502 28.6761 17.638 30.364C19.3259 32.0518 21.6151 33 24.002 33C26.3889 33 28.6781 32.0518 30.366 30.364C32.0538 28.6761 33.002 26.3869 33.002 24C33.002 21.6131 32.0538 19.3239 30.366 17.636C28.6781 15.9482 26.3889 15 24.002 15V15Z" fill="white"/>
</svg>
